<svg id="visual" viewBox="0 0 900 600" width="900" height="600" xmlns="http://www.w3.org/2000/svg" xmlns:xlink="http://www.w3.org/1999/xlink" version="1.1"><path d="M0 133L37.5 133C75 133 150 133 225 130C300 127 375 121 450 101C525 81 600 47 675 44C750 41 825 69 862.5 83L900 97L900 0L862.5 0C825 0 750 0 675 0C600 0 525 0 450 0C375 0 300 0 225 0C150 0 75 0 37.5 0L0 0Z" fill="#24574e"></path><path d="M0 367L37.5 337C75 307 150 247 225 231C300 215 375 243 450 262C525 281 600 291 675 270C750 249 825 197 862.5 171L900 145L900 95L862.5 81C825 67 750 39 675 42C600 45 525 79 450 99C375 119 300 125 225 128C150 131 75 131 37.5 131L0 131Z" fill="#193f38"></path><path d="M0 397L37.5 380C75 363 150 329 225 321C300 313 375 331 450 363C525 395 600 441 675 427C750 413 825 339 862.5 302L900 265L900 143L862.5 169C825 195 750 247 675 268C600 289 525 279 450 260C375 241 300 213 225 229C150 245 75 305 37.5 335L0 365Z" fill="#0e2823"></path><path d="M0 499L37.5 514C75 529 150 559 225 570C300 581 375 573 450 564C525 555 600 545 675 531C750 517 825 499 862.5 490L900 481L900 263L862.5 300C825 337 750 411 675 425C600 439 525 393 450 361C375 329 300 311 225 319C150 327 75 361 37.5 378L0 395Z" fill="#0e2320"></path><path d="M0 601L37.5 601C75 601 150 601 225 601C300 601 375 601 450 601C525 601 600 601 675 601C750 601 825 601 862.5 601L900 601L900 479L862.5 488C825 497 750 515 675 529C600 543 525 553 450 562C375 571 300 579 225 568C150 557 75 527 37.5 512L0 497Z" fill="#0d1f1c"></path></svg>